<svg version="1.1" xmlns="http://www.w3.org/2000/svg" xmlns:xlink="http://www.w3.org/1999/xlink" width="625" height="448" viewBox="0,0,625,448"><g transform="translate(71.5,39.5)"><g stroke-miterlimit="10"><path d="M65.65581,37.44535c-0.31744,0.24614 -0.63487,0.49228 -0.95231,0.73842c-2.17422,1.55105 -4.09412,3.54175 -6.52265,4.65315c-1.74747,0.79972 -3.78887,0.64737 -5.68894,0.93538c-4.63263,0.70222 -11.82697,2.32371 -16.3193,-0.16357c-0.18118,-0.10032 -0.3596,-0.20643 -0.53506,-0.31804c-3.45252,1.48392 -7.05549,2.29498 -11.16694,1.05796c-4.86077,-1.46247 -9.06747,-7.98246 -10.37061,-12.37831c-1.24553,-4.20153 -1.14555,-9.34923 -0.81254,-14.45387c-0.41742,0.6521 -0.82221,1.31891 -1.21213,2.00526l-1.66355,2.26379c0,0 -2.13165,2.8422 -4.97384,0.71055c-2.8422,-2.13165 -0.71055,-4.97384 -0.71055,-4.97384l1.17865,-1.5258c2.48413,-4.32516 5.45245,-7.96056 8.52327,-11.89694c0.34073,-0.66093 0.93124,-1.31433 1.95464,-1.59398c0.19487,-0.07703 0.40373,-0.13927 0.62492,-0.17839c0.169,-0.13988 0.35999,-0.27517 0.57533,-0.40438c3.04645,-1.82787 4.87432,1.21858 4.87432,1.21858c2.38283,3.9931 4.97683,7.13491 7.92465,10.69662l2.06124,3.57958c0,0 1.76265,3.08465 -1.322,4.8473c-3.08465,1.76265 -4.8473,-1.32199 -4.8473,-1.32199l-1.72836,-3.05221c-1.37216,-1.63311 -2.65427,-3.19734 -3.8745,-4.79565c-0.61501,7.6618 -1.3241,16.2455 2.89173,21.8132c2.29837,3.03537 4.76415,3.19918 7.31662,2.40724c-0.93089,-2.46622 -1.06921,-5.20516 -0.06616,-7.65232c2.15664,-5.26161 10.16873,-7.86129 14.9419,-3.80984c6.8245,5.79261 4.79632,9.19115 1.09649,11.63816c1.86282,-0.26587 3.58146,-0.6073 4.61447,-0.75032c1.33691,-0.18509 2.80008,0.09682 4.0205,-0.47952c1.86884,-0.88256 3.29144,-2.50047 4.93716,-3.75071c1.23539,-0.95819 2.47077,-1.91637 3.70616,-2.87456l5.07393,5.35203c0,0 -0.91005,2.73016 -3.54923,2.45703zM37.48694,34.4169c0.02439,-0.0096 0.04879,-0.01914 0.07318,-0.02863c1.50355,-0.58454 3.39726,-0.26065 4.67738,-1.24231c0.50088,-0.3841 -0.26702,-1.45472 -0.85237,-1.69089c-0.99071,-0.39972 -2.16368,-0.18681 -3.20448,0.05407c-1.37557,0.31836 -1.26012,1.61319 -0.69372,2.90776z" fill="#ffffff" stroke="none" stroke-width="0.5"/><text transform="translate(70.5,20.22673) scale(0.5,0.5)" font-size="40" xml:space="preserve" fill="#ffffff" stroke="none" stroke-width="1" font-family="&quot;ヒラギノ角ゴ Pro W3&quot;, &quot;Hiragino Kaku Gothic Pro&quot;, Osaka, &quot;メイリオ&quot;, Meiryo, &quot;ＭＳ Ｐゴシック&quot;, &quot;MS PGothic&quot;" font-weight="normal" text-anchor="start"><tspan x="0" dy="0">Press the</tspan><tspan x="0" dy="46.150000000000006px">‎ ‎ ‎ ‎ ‎ ‎ ‎ ‎ ‎ ‎ ‎ ‎     Flag</tspan><tspan x="0" dy="46.150000000000006px">to try again</tspan></text><text transform="translate(73.16667,43.22673) scale(0.5,0.5)" font-size="40" xml:space="preserve" fill="#06e602" stroke="#06b200" stroke-width="2" font-family="&quot;ヒラギノ角ゴ Pro W3&quot;, &quot;Hiragino Kaku Gothic Pro&quot;, Osaka, &quot;メイリオ&quot;, Meiryo, &quot;ＭＳ Ｐゴシック&quot;, &quot;MS PGothic&quot;" font-weight="normal" text-anchor="start"><tspan x="0" dy="0">GREEN</tspan></text><path d="M-71.5,408.5v-448h625v448z" fill="#000000" stroke="none" stroke-width="0"/><text transform="translate(69.52809,193.51875) scale(1.17172,1.17172)" font-size="40" xml:space="preserve" fill="#ff0000" stroke="none" stroke-width="1" font-family="Curly" font-weight="normal" text-anchor="start"><tspan x="0" dy="0">YOU ARE DEAD</tspan></text><text transform="translate(98.5,279.5) scale(0.5,0.5)" font-size="40" xml:space="preserve" fill="#ff0000" stroke="none" stroke-width="1" font-family="Curly" font-weight="normal" text-anchor="start"><tspan x="0" dy="0">reload to try again</tspan></text></g></g></svg>