<svg version="1.1" xmlns="http://www.w3.org/2000/svg" xmlns:xlink="http://www.w3.org/1999/xlink" width="20.75" height="20.75" viewBox="0,0,20.75,20.75"><g transform="translate(-229.625,-169.625)"><g data-paper-data="{&quot;isPaintingLayer&quot;:true}" fill-rule="nonzero" stroke-linecap="butt" stroke-linejoin="miter" stroke-miterlimit="10" stroke-dasharray="" stroke-dashoffset="0" style="mix-blend-mode: normal"><path d="M249.125,180c0,5.0396 -4.0854,9.125 -9.125,9.125c-5.0396,0 -9.125,-4.0854 -9.125,-9.125c0,-5.0396 4.0854,-9.125 9.125,-9.125c5.0396,0 9.125,4.0854 9.125,9.125z" fill="#33bfff" stroke="#000000" stroke-width="2.5"/><path d="M239.3506,180.1057c0,2.02109 -0.6809,3.65951 -1.52083,3.65951c-0.83993,0 -1.52083,-1.63842 -1.52083,-3.65951c0,-2.02109 0.6809,-3.65951 1.52083,-3.65951c0.83993,0 1.52083,1.63842 1.52083,3.65951z" fill="#000000" stroke="none" stroke-width="0"/><path d="M243.70703,180.11026c0,2.02109 -0.6809,3.65951 -1.52083,3.65951c-0.83993,0 -1.52083,-1.63842 -1.52083,-3.65951c0,-2.02109 0.6809,-3.65951 1.52083,-3.65951c0.83993,0 1.52083,1.63842 1.52083,3.65951z" fill="#000000" stroke="none" stroke-width="0"/></g></g></svg>