<svg version="1.1" xmlns="http://www.w3.org/2000/svg" xmlns:xlink="http://www.w3.org/1999/xlink" width="608.84852" height="387.23767" viewBox="0,0,608.84852,387.23767"><g transform="translate(101.34849,29.66684)"><g data-paper-data="{&quot;isPaintingLayer&quot;:true}" fill-rule="nonzero" stroke-linejoin="miter" stroke-miterlimit="10" stroke-dasharray="" stroke-dashoffset="0" style="mix-blend-mode: normal"><g stroke="#808080"><path d="M171.94326,122.5225c24.57915,0 46.85585,9.91864 62.98332,25.9371c16.12811,16.0244 26.11227,38.15395 26.11227,62.57043c0,24.41648 -9.98417,46.54603 -26.11227,62.57043c-16.12747,16.01846 -38.40425,25.9371 -62.98332,25.9371c-24.57915,0 -46.85582,-9.91868 -62.98392,-25.9371c-16.12747,-16.0244 -26.11227,-38.15395 -26.11227,-62.57043c0,-24.41645 9.9848,-46.546 26.11227,-62.57043c16.12811,-16.01846 38.40477,-25.9371 62.98392,-25.9371z" fill="none" stroke-width="50" stroke-linecap="butt"/><path d="M268.00135,105.67384l-14.3869,33.56944l-32.97001,-24.57765l29.37325,-23.37872z" fill="#808080" stroke-width="12" stroke-linecap="round"/><path d="M311.61823,182.03293l-31.50912,18.46801l-11.93456,-39.35299l37.51687,-1.36977z" fill="#808080" stroke-width="12" stroke-linecap="round"/><path d="M305.89226,264.99503l-36.51518,-0.74331l10.41491,-39.78219l32.69007,18.45841z" fill="#808080" stroke-width="12" stroke-linecap="round"/><path d="M248.64734,333.3622l-28.01551,-23.43149l33.01914,-24.51108l13.94633,34.85468z" fill="#808080" stroke-width="12" stroke-linecap="round"/><path d="M159.388,351.36681l-9.47797,-35.27131l41.10819,-1.103l-8.60037,36.54335z" fill="#808080" stroke-width="12" stroke-linecap="round"/><path d="M77.59302,318.45556l14.34135,-33.58861l33.00296,24.53268l-29.3415,23.4183z" fill="#808080" stroke-width="12" stroke-linecap="round"/><path d="M32.43254,242.17379l31.49113,-18.49857l11.97289,39.34159l-37.51504,1.40571z" fill="#808080" stroke-width="12" stroke-linecap="round"/><path d="M38.81014,158.56489l36.4618,2.09989l-11.88599,39.36738l-31.98209,-19.6603z" fill="#808080" stroke-width="12" stroke-linecap="round"/><path d="M96.99496,89.99089l27.70738,23.79472l-33.33625,24.07829l-13.49013,-35.03391z" fill="#808080" stroke-width="12" stroke-linecap="round"/><path d="M185.3192,71.08531l8.87613,35.42716l-41.12079,0.40283l9.22142,-36.39108z" fill="#808080" stroke-width="12" stroke-linecap="round"/><path d="M110.38139,211.03003c0,-33.99951 27.56205,-61.56156 61.56157,-61.56156c33.99951,0 61.56156,27.56205 61.56156,61.56156c0,33.99951 -27.56205,61.56156 -61.56156,61.56156c-33.99951,0 -61.56157,-27.56205 -61.56157,-61.56156z" fill="none" stroke-width="50" stroke-linecap="butt"/></g><g stroke="#000000"><path d="M-11.00288,189.23296c4.125,0 7.8636,1.6646 10.5702,4.3529c2.7067,2.6893 4.3823,6.4032 4.3823,10.5009c0,4.0977 -1.6756,7.8116 -4.3823,10.5009c-2.7066,2.6883 -6.4452,4.3529 -10.5702,4.3529c-4.125,0 -7.8636,-1.6646 -10.5703,-4.3529c-2.7066,-2.6893 -4.3823,-6.4032 -4.3823,-10.5009c0,-4.0977 1.6757,-7.8116 4.3823,-10.5009c2.7067,-2.6883 6.4453,-4.3529 10.5703,-4.3529z" fill="none" stroke-width="8.65594" stroke-linecap="butt"/><path d="M5.02431,186.42466l-2.4,5.6l-5.5,-4.1l4.9,-3.9z" fill="#000000" stroke-width="2" stroke-linecap="round"/><path d="M12.30042,199.16276l-5.2563,3.0808l-1.9909,-6.5648l6.2585,-0.2285z" fill="#000000" stroke-width="2" stroke-linecap="round"/><path d="M11.34522,213.00236l-6.0914,-0.124l1.7374,-6.6364l5.4533,3.0792z" fill="#000000" stroke-width="2" stroke-linecap="round"/><path d="M1.79572,224.40726l-4.6735,-3.9088l5.5082,-4.0889l2.3265,5.8144z" fill="#000000" stroke-width="2" stroke-linecap="round"/><path d="M-13.09438,227.41076l-1.5811,-5.8839l6.8576,-0.184l-1.4347,6.0961z" fill="#000000" stroke-width="2" stroke-linecap="round"/><path d="M-26.73928,221.92056l2.3924,-5.6032l5.5055,4.0925l-4.8947,3.9066z" fill="#000000" stroke-width="2" stroke-linecap="round"/><path d="M-34.27289,209.19536l5.2533,-3.0859l1.9973,6.5629l-6.2582,0.2345z" fill="#000000" stroke-width="2" stroke-linecap="round"/><path d="M-33.20898,195.24786l6.0825,0.3503l-1.9828,6.5672l-5.3352,-3.2797z" fill="#000000" stroke-width="2" stroke-linecap="round"/><path d="M-23.50268,183.80846l4.6221,3.9694l-5.5611,4.0167l-2.2504,-5.8443z" fill="#000000" stroke-width="2" stroke-linecap="round"/><path d="M-8.76858,180.65466l1.4807,5.9099l-6.8597,0.0672l1.5383,-6.0707z" fill="#000000" stroke-width="2" stroke-linecap="round"/></g><g stroke="#000000"><path d="M-49.99689,272.52463c8.61166,0 16.41664,3.47514 22.06714,9.08744c5.65071,5.61438 9.14882,13.3678 9.14882,21.92247c0,8.55467 -3.49811,16.30808 -9.14882,21.92247c-5.6505,5.6123 -13.45548,9.08744 -22.06714,9.08744c-8.61166,0 -16.41664,-3.47514 -22.06735,-9.08744c-5.6505,-5.61438 -9.14882,-13.3678 -9.14882,-21.92247c0,-8.55467 3.49832,-16.30808 9.14882,-21.92247c5.65071,-5.6123 13.45569,-9.08744 22.06735,-9.08744z" fill="none" stroke-width="12" stroke-linecap="butt"/><path d="M-16.54346,266.84292l-5.01042,11.69098l-11.48221,-8.55947l10.22961,-8.14193z" fill="#000000" stroke-width="4" stroke-linecap="round"/><path d="M-1.35332,293.43593l-10.97345,6.43171l-4.15635,-13.70517l13.06571,-0.47703z" fill="#000000" stroke-width="4" stroke-linecap="round"/><path d="M-3.34747,322.32852l-12.71686,-0.25887l3.62713,-13.85465l11.38472,6.42837z" fill="#000000" stroke-width="4" stroke-linecap="round"/><path d="M-23.28373,346.13825l-9.75675,-8.1603l11.49933,-8.53629l4.85698,12.13858z" fill="#000000" stroke-width="4" stroke-linecap="round"/><path d="M-54.36942,352.40858l-3.30082,-12.28367l14.31644,-0.38413l-2.99519,12.72668z" fill="#000000" stroke-width="4" stroke-linecap="round"/><path d="M-82.85555,340.94683l4.99455,-11.69766l11.4937,8.54381l-10.21854,8.15571z" fill="#000000" stroke-width="4" stroke-linecap="round"/><path d="M-98.58325,314.38074l10.96718,-6.44236l4.16971,13.7012l-13.06509,0.48956z" fill="#000000" stroke-width="4" stroke-linecap="round"/><path d="M-96.36217,285.26289l12.69828,0.73131l-4.13944,13.71018l-11.13816,-6.84695z" fill="#000000" stroke-width="4" stroke-linecap="round"/><path d="M-76.09857,261.38114l9.64944,8.28682l-11.60977,8.38556l-4.6981,-12.201z" fill="#000000" stroke-width="4" stroke-linecap="round"/><path d="M-45.33855,254.79703l3.09122,12.33795l-14.32083,0.14029l3.21147,-12.67365z" fill="#000000" stroke-width="4" stroke-linecap="round"/></g><g stroke="#000000"><path d="M-15.8873,86.02543c6.54574,0 12.47831,2.64146 16.77326,6.90738c4.29511,4.2675 6.95403,10.16089 6.95403,16.6633c0,6.50241 -2.65891,12.3958 -6.95403,16.6633c-4.29495,4.26592 -10.22753,6.90738 -16.77326,6.90738c-6.54574,0 -12.47831,-2.64146 -16.77342,-6.90738c-4.29495,-4.2675 -6.95403,-10.16089 -6.95403,-16.6633c0,-6.50241 2.65907,-12.3958 6.95403,-16.6633c4.29511,-4.26592 10.22769,-6.90738 16.77342,-6.90738z" fill="none" stroke-width="25" stroke-linecap="butt"/><path d="M15.51566,75.15347l-4.70331,10.97439l-10.77843,-8.03483l9.60259,-7.64288z" fill="#000000" stroke-width="4" stroke-linecap="round"/><path d="M29.77472,100.11649l-10.30084,6.03749l-3.9016,-12.86513l12.26487,-0.4478z" fill="#000000" stroke-width="4" stroke-linecap="round"/><path d="M27.90281,127.23814l-11.9374,-0.243l3.4048,-13.00544l10.68691,6.03435z" fill="#000000" stroke-width="4" stroke-linecap="round"/><path d="M9.18852,149.58847l-9.15872,-7.66013l10.79449,-8.01307l4.55928,11.39456z" fill="#000000" stroke-width="4" stroke-linecap="round"/><path d="M-19.9918,155.47447l-3.0985,-11.53076l13.43893,-0.36059l-2.8116,11.94661z" fill="#000000" stroke-width="4" stroke-linecap="round"/><path d="M-46.7319,144.71525l4.68842,-10.98066l10.7892,8.02013l-9.59221,7.65582z" fill="#000000" stroke-width="4" stroke-linecap="round"/><path d="M-61.49559,119.77751l10.29496,-6.04748l3.91413,12.8614l-12.26427,0.45955z" fill="#000000" stroke-width="4" stroke-linecap="round"/><path d="M-59.41065,92.44441l11.91995,0.68649l-3.88572,12.86983l-10.45546,-6.42727z" fill="#000000" stroke-width="4" stroke-linecap="round"/><path d="M-40.38909,70.02646l9.05799,7.77888l-10.89816,7.87158l-4.41014,-11.45315z" fill="#000000" stroke-width="4" stroke-linecap="round"/><path d="M-11.51447,63.84592l2.90175,11.58171l-13.44305,0.13169l3.01463,-11.89683z" fill="#000000" stroke-width="4" stroke-linecap="round"/></g><g stroke="#757575"><path d="M405.16535,15.98226c15.52649,0 29.59854,6.26554 39.78616,16.3843c10.18802,10.12251 16.49496,24.10161 16.49496,39.52534c0,15.42373 -6.30694,29.40283 -16.49496,39.52534c-10.18762,10.11876 -24.25972,16.3843 -39.78616,16.3843c-15.52649,0 -29.59852,-6.26557 -39.78654,-16.3843c-10.18762,-10.12251 -16.49495,-24.10161 -16.49495,-39.52534c0,-15.42372 6.30733,-29.40281 16.49495,-39.52534c10.18802,-10.11876 24.26005,-16.3843 39.78654,-16.3843z" fill="none" stroke-width="42.5" stroke-linecap="butt"/><path d="M471.46157,-0.82156l-9.92937,23.16854l-22.75484,-16.9627l20.27247,-16.13524z" fill="#757575" stroke-width="9" stroke-linecap="round"/><path d="M501.56454,51.87903l-21.74657,12.74603l-8.23685,-27.16017l25.89293,-0.94537z" fill="#757575" stroke-width="9" stroke-linecap="round"/><path d="M497.61266,109.13679l-25.2016,-0.51301l7.18804,-27.45638l22.56164,12.7394z" fill="#757575" stroke-width="9" stroke-linecap="round"/><path d="M458.10406,156.32161l-19.33541,-16.17165l22.78875,-16.91676l9.62531,24.05558z" fill="#757575" stroke-width="9" stroke-linecap="round"/><path d="M396.50014,168.74781l-6.54139,-24.34312l28.37155,-0.76126l-5.9357,25.22104z" fill="#757575" stroke-width="9" stroke-linecap="round"/><path d="M340.04788,146.03353l9.89794,-23.18178l22.77758,16.93167l-20.25056,16.16255z" fill="#757575" stroke-width="9" stroke-linecap="round"/><path d="M308.87958,93.38631l21.73416,-12.76711l8.26331,27.15229l-25.89167,0.97018z" fill="#757575" stroke-width="9" stroke-linecap="round"/><path d="M313.28119,35.68214l25.16476,1.44928l-8.20333,27.1701l-22.07301,-13.5689z" fill="#757575" stroke-width="9" stroke-linecap="round"/><path d="M353.43848,-11.64542l19.12273,16.42235l-23.0076,16.61806l-9.31045,-24.17928z" fill="#757575" stroke-width="9" stroke-linecap="round"/><path d="M414.39702,-24.69345l6.12601,24.45069l-28.38024,0.27802l6.36433,-25.11595z" fill="#757575" stroke-width="9" stroke-linecap="round"/></g></g></g></svg>